# xmcd
#
# Track frame offsets: 
#        150
#        13241
#        33338
#        47854
#        65481
#        79182
#        96026
#        108338
#        125332
#        135008
#
# Disc length: 2026 seconds
#
# Revision: 0
# Processed by: cddbd v1.5.2PL0 Copyright (c) Steve Scherf et al.
# Submitted via: ExactAudioCopy v1.0b3
#
DISCID=7a07e80a
DTITLE=Down East Boys - Beyond the Blue
DYEAR=2014
DGENRE=Gospel
TTITLE0=Beyond the Blue
TTITLE1=I Just Steal Away and Pray
TTITLE2=If I Know Him
TTITLE3=Holy All Over Again
TTITLE4=I Want To Be Like My Lord
TTITLE5=I Left My Past in the Past
TTITLE6=Shed a Little Light
TTITLE7=The First Day for Me
TTITLE8=Hay Baby
TTITLE9=Yes! I Remember You
EXTD=
EXTT0=
EXTT1=
EXTT2=
EXTT3=
EXTT4=
EXTT5=
EXTT6=
EXTT7=
EXTT8=
EXTT9=
PLAYORDER=
